<svg width="56" height="69" viewBox="0 0 56 69" fill="none" xmlns="http://www.w3.org/2000/svg">
<path d="M46.3673 38.2008C44.4968 28.787 53.4321 23.2659 53.4321 23.2659C53.4321 23.2659 49.9508 18.2293 44.1 16.9336C38.2521 15.635 35.3252 17.2574 32.4041 18.4743C29.4802 19.6941 28.0211 19.6941 28.0211 19.6941C23.8016 19.6941 20.717 15.2265 12.6777 17.2604C7.13915 18.6581 1.30867 25.0518 0.255239 32.6827C-0.798195 40.3165 1.47507 50.0572 5.85804 57.6064C10.241 65.1614 14.7058 68.0007 17.8748 68.0824C21.0439 68.1612 24.2072 65.8121 28.0211 65.2402C31.8381 64.674 34.1871 66.6234 37.931 67.6768C41.6603 68.7274 42.9677 67.7527 47.2631 64.0992C51.5702 60.4457 55.4689 49.9668 55.4689 49.9668C55.4689 49.9668 48.2378 47.6205 46.3673 38.2008Z" fill="black"/>
<path d="M38.0856 10.8435C42.2292 6.62112 40.8257 0.0844727 40.8257 0.0844727C40.8257 0.0844727 35.007 1.10585 31.1083 5.16198C27.2126 9.22109 27.8575 15.6322 27.8575 15.6322C27.8575 15.6322 33.9418 15.0632 38.0856 10.8435Z" fill="black"/>
</svg>
