<svg width="281" height="72" viewBox="0 0 281 72" fill="none" xmlns="http://www.w3.org/2000/svg">
<g clip-path="url(#clip0_1_3663)">
<path d="M89.8384 56.2103L93.3243 48.1599C97.0914 50.9552 102.095 52.4087 107.043 52.4087C110.698 52.4087 113.003 51.0111 113.003 48.8867C112.947 42.9607 91.1316 47.6008 90.9629 32.73C90.9067 25.1827 97.6536 19.3685 107.212 19.3685C112.891 19.3685 118.569 20.7662 122.617 23.9528L119.356 32.1709C115.646 29.8229 111.035 28.1457 106.65 28.1457C103.67 28.1457 101.702 29.5434 101.702 31.3323C101.758 37.1465 123.742 33.9599 123.967 48.1599C123.967 55.8748 117.389 61.2977 107.943 61.2977C101.027 61.2977 94.6737 59.6764 89.8384 56.2103ZM223.597 45.2528C221.854 48.2717 218.593 50.3402 214.826 50.3402C209.26 50.3402 204.762 45.8678 204.762 40.3331C204.762 34.7985 209.26 30.326 214.826 30.326C218.593 30.326 221.854 32.3945 223.597 35.4134L233.212 30.1024C229.613 23.7292 222.698 19.3685 214.826 19.3685C203.188 19.3685 193.742 28.7607 193.742 40.3331C193.742 51.9056 203.188 61.2977 214.826 61.2977C222.754 61.2977 229.613 56.993 233.212 50.5638L223.597 45.2528ZM128.802 1.98193H140.834V60.515H128.802V1.98193ZM237.935 1.98193V60.515H249.967V42.9607L264.248 60.515H279.654L261.493 39.6622L278.304 20.2071H263.573L249.967 36.3638V1.98193H237.935ZM176.593 45.3646C174.85 48.2158 171.252 50.3402 167.204 50.3402C161.638 50.3402 157.14 45.8678 157.14 40.3331C157.14 34.7985 161.638 30.326 167.204 30.326C171.252 30.326 174.85 32.5622 176.593 35.4693V45.3646ZM176.593 20.2071V24.9591C174.626 21.6607 169.734 19.3685 164.618 19.3685C154.047 19.3685 145.726 28.6489 145.726 40.2772C145.726 51.9056 154.047 61.2977 164.618 61.2977C169.734 61.2977 174.626 59.0056 176.593 55.7071V60.4591H188.626V20.2071H176.593Z" fill="black"/>
<path d="M15.4532 45.3087C15.4532 49.3898 12.136 52.6883 8.03155 52.6883C3.92713 52.6883 0.609863 49.3898 0.609863 45.3087C0.609863 41.2276 3.92713 37.9292 8.03155 37.9292H15.4532V45.3087ZM19.1641 45.3087C19.1641 41.2276 22.4813 37.9292 26.5858 37.9292C30.6902 37.9292 34.0075 41.2276 34.0075 45.3087V63.7575C34.0075 67.8386 30.6902 71.1371 26.5858 71.1371C22.4813 71.1371 19.1641 67.8386 19.1641 63.7575V45.3087Z" fill="#E01E5A"/>
<path d="M26.5854 15.679C22.4809 15.679 19.1637 12.3806 19.1637 8.29945C19.1637 4.21835 22.4809 0.919922 26.5854 0.919922C30.6898 0.919922 34.007 4.21835 34.007 8.29945V15.679H26.5854ZM26.5854 19.4246C30.6898 19.4246 34.007 22.7231 34.007 26.8042C34.007 30.8853 30.6898 34.1837 26.5854 34.1837H7.97491C3.87049 34.1837 0.553223 30.8853 0.553223 26.8042C0.553223 22.7231 3.87049 19.4246 7.97491 19.4246H26.5854Z" fill="#36C5F0"/>
<path d="M56.3284 26.8042C56.3284 22.7231 59.6456 19.4246 63.7501 19.4246C67.8545 19.4246 71.1717 22.7231 71.1717 26.8042C71.1717 30.8853 67.8545 34.1837 63.7501 34.1837H56.3284V26.8042ZM52.6175 26.8042C52.6175 30.8853 49.3003 34.1837 45.1959 34.1837C41.0914 34.1837 37.7742 30.8853 37.7742 26.8042V8.29945C37.7742 4.21835 41.0914 0.919922 45.1959 0.919922C49.3003 0.919922 52.6175 4.21835 52.6175 8.29945V26.8042Z" fill="#2EB67D"/>
<path d="M45.1959 56.378C49.3003 56.378 52.6175 59.6764 52.6175 63.7575C52.6175 67.8386 49.3003 71.1371 45.1959 71.1371C41.0914 71.1371 37.7742 67.8386 37.7742 63.7575V56.378H45.1959ZM45.1959 52.6883C41.0914 52.6883 37.7742 49.3898 37.7742 45.3087C37.7742 41.2276 41.0914 37.9292 45.1959 37.9292H63.8063C67.9107 37.9292 71.228 41.2276 71.228 45.3087C71.228 49.3898 67.9107 52.6883 63.8063 52.6883H45.1959Z" fill="#ECB22E"/>
</g>
<defs>
<clipPath id="clip0_1_3663">
<rect width="280" height="71" fill="white" transform="translate(0.158691 0.584473)"/>
</clipPath>
</defs>
</svg>
